<?xml version="1.0" encoding="UTF-8"?>
<!DOCTYPE svg PUBLIC "-//W3C//DTD SVG 1.1//EN" "http://www.w3.org/Graphics/SVG/1.1/DTD/svg11.dtd">
<!-- Creator: CorelDRAW X7 -->
<svg xmlns="http://www.w3.org/2000/svg" xml:space="preserve" width="507px" height="123px" version="1.1" shape-rendering="geometricPrecision" text-rendering="geometricPrecision" image-rendering="optimizeQuality" fill-rule="evenodd" clip-rule="evenodd"
viewBox="0 0 507 123"
 xmlns:xlink="http://www.w3.org/1999/xlink">
 <g id="Layer_x0020_1">
  <metadata id="CorelCorpID_0Corel-Layer"/>
  <path fill="#141D5D" d="M223 46c18,-7 21,-1 21,17 0,7 -1,16 0,23 0,8 7,7 15,6 0,-9 -1,-43 2,-46 0,0 19,-10 19,10 0,34 -4,38 15,35 1,-12 2,-41 -3,-51 -3,-5 -9,-8 -18,-9 -12,-1 -14,3 -22,6 -9,-5 -15,-8 -28,-5 -10,3 -17,6 -17,17 1,41 -3,44 15,43 2,-6 1,-37 1,-46z"/>
  <path fill="#141D5D" d="M507 34c-5,-4 -10,-3 -14,0 -2,6 -4,15 -6,22 -1,3 -4,16 -7,19 -3,-3 -9,-22 -11,-28 -1,-4 -3,-11 -5,-13 -3,-4 -12,-3 -13,1 -1,2 9,41 22,52 -3,9 -12,14 -15,20 1,5 4,8 10,8 19,-2 44,-72 39,-81z"/>
  <path fill="#141D5D" d="M348 69c-5,21 -35,12 -26,-15 5,-18 33,-13 26,15zm-43 1c8,37 68,29 60,-15 -8,-38 -70,-29 -60,15z"/>
  <path fill="#141D5D" d="M185 65l0 14c-7,3 -22,5 -22,-5 -1,-9 14,-8 22,-9zm0 -12c-2,1 -1,1 -3,1 -3,1 1,0 -2,1l-13 1c-26,3 -21,25 -15,31 7,6 20,7 31,6 14,-3 17,-6 17,-21 0,-20 5,-45 -35,-40 -4,0 -11,1 -13,5 -1,3 -1,6 0,8 3,3 3,2 7,0 9,-3 25,-5 26,8z"/>
  <path fill="#141D5D" d="M10 31c16,7 11,10 28,12 4,-8 6,-14 12,-21 8,-12 21,-17 20,-7 -1,7 -27,43 11,42 -6,-22 29,-46 -8,-57l-2 4c0,0 0,1 0,1 0,0 0,1 0,1 -28,-6 -51,7 -61,25z"/>
  <path fill="#141D5D" d="M390 37c-1,-13 2,-18 16,-16 5,0 10,4 10,-5 0,-5 -3,-6 -7,-7 -16,-5 -34,0 -34,25l0 44c0,14 1,15 15,14 1,-10 0,-31 1,-43 6,0 16,1 22,-2 1,-5 1,-5 -1,-10l-22 0z"/>
  <path fill="#141D5D" d="M441 23c0,-6 1,-11 -6,-13 -7,-2 -10,-1 -10,6 0,9 0,69 1,72 2,4 10,6 13,4 4,-2 2,-12 2,-17l0 -52z"/>
  <path fill="#141D5D" d="M115 47c13,-8 22,3 23,-8 1,-14 -29,-6 -34,-2 -8,5 -5,24 -5,34 0,15 -2,26 16,20l0 -34c-1,-1 -1,-4 -1,-6 1,-1 1,-1 1,-2l0 -2z"/>
  <path fill="#1D4ED8" d="M10 31c-8,12 -14,37 -7,51 4,8 8,12 17,16 11,4 16,2 28,1 -2,9 -8,23 -8,24 6,-1 16,-6 21,-9 6,-5 8,-8 11,-19 6,-19 9,-35 -18,-33 2,9 2,14 -2,23 -6,11 -14,12 -18,7 -10,-12 0,-38 4,-49 -8,-10 -17,-14 -28,-12z"/>
 </g>
</svg>
