<?xml version="1.0" encoding="UTF-8"?>
<!DOCTYPE svg PUBLIC "-//W3C//DTD SVG 1.1//EN" "http://www.w3.org/Graphics/SVG/1.1/DTD/svg11.dtd">
<!-- Creator: CorelDRAW X7 -->
<svg xmlns="http://www.w3.org/2000/svg" xml:space="preserve" width="1000px" height="452px" version="1.1" style="shape-rendering:geometricPrecision; text-rendering:geometricPrecision; image-rendering:optimizeQuality; fill-rule:evenodd; clip-rule:evenodd"
viewBox="0 0 1000 452"
 xmlns:xlink="http://www.w3.org/1999/xlink">
 <defs>
  <style type="text/css">
   <![CDATA[
    .str0 {stroke:#FEFEFE;stroke-width:2.58698;stroke-linecap:round;stroke-linejoin:round}
    .fil1 {fill:none}
    .fil0 {fill:#1F8BED}
    .fil2 {fill:#FBFEFA}
   ]]>
  </style>
 </defs>
 <g id="Layer_x0020_1">
  <metadata id="CorelCorpID_0Corel-Layer"/>
  <rect class="fil0" width="1000" height="452"/>
  <g id="_2279247157696">
   <g>
    <path class="fil1 str0" d="M470 203c12,-5 20,3 21,14 1,21 -5,54 11,46 7,-4 -1,-39 4,-52 4,-9 17,-14 25,-6 7,7 5,21 5,32 0,7 -3,35 11,26 5,-3 3,-12 3,-17 0,-17 3,-38 -7,-49 -8,-9 -15,-8 -30,-8 -13,0 -25,0 -38,0 -19,0 -29,-3 -29,8 -1,13 0,26 0,38 0,9 -4,32 9,28 6,-1 5,-8 5,-14 0,-6 0,-13 0,-19 0,-14 -2,-22 10,-27z"/>
    <path id="1" class="fil2" d="M470 203c12,-5 20,3 21,14 1,21 -5,54 11,46 7,-4 -1,-39 4,-52 4,-9 17,-14 25,-6 7,7 5,21 5,32 0,7 -3,35 11,26 5,-3 3,-12 3,-17 0,-17 3,-38 -7,-49 -8,-9 -15,-8 -30,-8 -13,0 -25,0 -38,0 -19,0 -29,-3 -29,8 -1,13 0,26 0,38 0,9 -4,32 9,28 6,-1 5,-8 5,-14 0,-6 0,-13 0,-19 0,-14 -2,-22 10,-27z"/>
   </g>
   <g>
    <path class="fil1 str0" d="M258 222c1,4 2,16 1,21 -1,5 -8,7 -14,8 -39,8 -63,-42 -34,-71 11,-11 32,-15 48,-4 3,3 10,7 13,0 4,-9 -16,-17 -23,-19 -38,-7 -71,26 -63,66 7,37 50,54 81,33 7,-5 5,-7 5,-17 0,-26 4,-30 -13,-30 -4,0 -17,-1 -21,0 -7,2 -7,10 0,12 6,2 13,-1 20,1z"/>
    <path id="1" class="fil2" d="M258 222c1,4 2,16 1,21 -1,5 -8,7 -14,8 -39,8 -63,-42 -34,-71 11,-11 32,-15 48,-4 3,3 10,7 13,0 4,-9 -16,-17 -23,-19 -38,-7 -71,26 -63,66 7,37 50,54 81,33 7,-5 5,-7 5,-17 0,-26 4,-30 -13,-30 -4,0 -17,-1 -21,0 -7,2 -7,10 0,12 6,2 13,-1 20,1z"/>
   </g>
   <g>
    <path class="fil1 str0" d="M384 202c15,-3 26,9 28,21 1,15 -7,27 -20,29 -34,3 -39,-45 -8,-50zm-33 32c2,11 7,18 14,24 9,7 16,6 30,6 19,0 29,3 30,-7 1,-8 1,-29 0,-36 -7,-48 -82,-40 -74,13z"/>
    <path id="1" class="fil2" d="M384 202c15,-3 26,9 28,21 1,15 -7,27 -20,29 -34,3 -39,-45 -8,-50zm-33 32c2,11 7,18 14,24 9,7 16,6 30,6 19,0 29,3 30,-7 1,-8 1,-29 0,-36 -7,-48 -82,-40 -74,13z"/>
   </g>
   <g>
    <path class="fil1 str0" d="M602 202c33,-6 39,43 10,49 -33,7 -41,-43 -10,-49zm41 33c5,-23 -10,-42 -29,-45 -22,-5 -41,10 -44,29 -9,51 63,63 73,16z"/>
    <path id="1" class="fil2" d="M602 202c33,-6 39,43 10,49 -33,7 -41,-43 -10,-49zm41 33c5,-23 -10,-42 -29,-45 -22,-5 -41,10 -44,29 -9,51 63,63 73,16z"/>
   </g>
   <g>
    <path class="fil1 str0" d="M806 190c-2,1 -15,32 -18,39l-7 13c-4,-7 -10,-21 -14,-28 -2,-5 -5,-10 -7,-15 -4,-6 -4,-10 -13,-9 -4,6 -3,7 1,14 2,4 4,8 7,13 5,9 9,17 14,26 11,21 5,13 -7,43 -2,7 1,10 9,10 4,-5 19,-41 24,-51 3,-7 23,-47 20,-52 -2,-3 -4,-4 -9,-3z"/>
    <path id="1" class="fil2" d="M806 190c-2,1 -15,32 -18,39l-7 13c-4,-7 -10,-21 -14,-28 -2,-5 -5,-10 -7,-15 -4,-6 -4,-10 -13,-9 -4,6 -3,7 1,14 2,4 4,8 7,13 5,9 9,17 14,26 11,21 5,13 -7,43 -2,7 1,10 9,10 4,-5 19,-41 24,-51 3,-7 23,-47 20,-52 -2,-3 -4,-4 -9,-3z"/>
   </g>
   <g>
    <path class="fil1 str0" d="M680 192c-1,-31 24,-15 23,-28 0,-11 -23,-7 -32,7 -6,9 -5,16 -5,29 0,12 0,23 0,35 0,8 -3,28 6,29 7,0 8,-4 8,-9 0,-6 0,-12 0,-18 0,-10 -1,-24 0,-33 4,0 11,0 14,0 6,-1 6,-3 6,-9 -6,-5 -11,-3 -20,-3z"/>
    <path id="1" class="fil2" d="M680 192c-1,-31 24,-15 23,-28 0,-11 -23,-7 -32,7 -6,9 -5,16 -5,29 0,12 0,23 0,35 0,8 -3,28 6,29 7,0 8,-4 8,-9 0,-6 0,-12 0,-18 0,-10 -1,-24 0,-33 4,0 11,0 14,0 6,-1 6,-3 6,-9 -6,-5 -11,-3 -20,-3z"/>
   </g>
   <g>
    <path class="fil1 str0" d="M712 244c1,9 7,17 15,19 16,4 18,-11 10,-13 -8,-1 -9,1 -11,-6 -1,-5 -1,-12 -1,-17 0,-8 1,-63 -1,-67 -2,-3 -8,-4 -11,1 -2,3 -1,10 -1,15 0,11 -1,60 0,68z"/>
    <path id="1" class="fil2" d="M712 244c1,9 7,17 15,19 16,4 18,-11 10,-13 -8,-1 -9,1 -11,-6 -1,-5 -1,-12 -1,-17 0,-8 1,-63 -1,-67 -2,-3 -8,-4 -11,1 -2,3 -1,10 -1,15 0,11 -1,60 0,68z"/>
   </g>
   <g>
    <path class="fil1 str0" d="M295 191c-3,8 -1,48 -1,61 0,6 -1,11 4,12 6,0 9,-2 9,-7 2,-25 -5,-46 9,-54 10,-5 23,0 27,-2 3,-2 2,-7 -1,-10 -3,-1 -8,-2 -13,-2 -11,0 -16,5 -22,9 -1,-9 -4,-9 -12,-7z"/>
    <path id="1" class="fil2" d="M295 191c-3,8 -1,48 -1,61 0,6 -1,11 4,12 6,0 9,-2 9,-7 2,-25 -5,-46 9,-54 10,-5 23,0 27,-2 3,-2 2,-7 -1,-10 -3,-1 -8,-2 -13,-2 -11,0 -16,5 -22,9 -1,-9 -4,-9 -12,-7z"/>
   </g>
  </g>
 </g>
</svg>
