<?xml version="1.0" encoding="UTF-8"?>
<!DOCTYPE svg PUBLIC "-//W3C//DTD SVG 1.1//EN" "http://www.w3.org/Graphics/SVG/1.1/DTD/svg11.dtd">
<!-- Creator: CorelDRAW X7 -->
<?xml-stylesheet href="text.css" type="text/css"?>
<svg xmlns="http://www.w3.org/2000/svg" xml:space="preserve" width="200px" height="45px" version="1.1" style="shape-rendering:geometricPrecision; text-rendering:geometricPrecision; image-rendering:optimizeQuality; fill-rule:evenodd; clip-rule:evenodd"
viewBox="0 0 200 45"
 xmlns:xlink="http://www.w3.org/1999/xlink">
 <g id="Layer_x0020_1">
  <metadata id="CorelCorpID_0Corel-Layer"/>
  <g id="_2279248150464">
   <g>
    <path class="fil0 str0" d="M91 15c3,-2 6,1 6,5 1,6 -1,17 3,14 3,-1 0,-12 2,-16 1,-3 5,-5 8,-2 2,2 1,6 1,10 0,2 0,11 4,8 1,-1 1,-4 1,-5 0,-6 1,-12 -2,-16 -3,-2 -5,-2 -10,-2 -4,0 -8,0 -12,0 -6,0 -9,-1 -9,2 0,4 0,8 0,12 0,3 -1,10 3,9 2,0 1,-2 1,-4 0,-2 0,-4 0,-6 0,-5 0,-7 4,-9z"/>
    <path id="1" class="fil1" d="M91 15c3,-2 6,1 6,5 1,6 -1,17 3,14 3,-1 0,-12 2,-16 1,-3 5,-5 8,-2 2,2 1,6 1,10 0,2 0,11 4,8 1,-1 1,-4 1,-5 0,-6 1,-12 -2,-16 -3,-2 -5,-2 -10,-2 -4,0 -8,0 -12,0 -6,0 -9,-1 -9,2 0,4 0,8 0,12 0,3 -1,10 3,9 2,0 1,-2 1,-4 0,-2 0,-4 0,-6 0,-5 0,-7 4,-9z"/>
   </g>
   <g>
    <path class="fil0 str0" d="M24 21c0,1 0,5 0,7 0,1 -3,2 -4,2 -13,3 -20,-13 -11,-22 3,-4 10,-5 15,-1 1,0 3,2 4,0 1,-3 -5,-6 -7,-6 -12,-3 -23,8 -20,20 2,12 16,18 25,11 3,-2 2,-2 2,-5 0,-9 1,-10 -4,-10 -1,0 -6,0 -7,0 -2,1 -2,3 0,4 2,0 4,0 7,0z"/>
    <path id="1" class="fil1" d="M24 21c0,1 0,5 0,7 0,1 -3,2 -4,2 -13,3 -20,-13 -11,-22 3,-4 10,-5 15,-1 1,0 3,2 4,0 1,-3 -5,-6 -7,-6 -12,-3 -23,8 -20,20 2,12 16,18 25,11 3,-2 2,-2 2,-5 0,-9 1,-10 -4,-10 -1,0 -6,0 -7,0 -2,1 -2,3 0,4 2,0 4,0 7,0z"/>
   </g>
   <g>
    <path class="fil0 str0" d="M64 15c4,-1 8,3 8,6 1,5 -2,9 -6,10 -11,1 -12,-15 -2,-16zm-11 10c0,3 2,6 4,7 3,3 6,3 10,3 6,0 9,0 9,-3 1,-2 1,-9 0,-11 -2,-15 -26,-13 -23,4z"/>
    <path id="1" class="fil1" d="M64 15c4,-1 8,3 8,6 1,5 -2,9 -6,10 -11,1 -12,-15 -2,-16zm-11 10c0,3 2,6 4,7 3,3 6,3 10,3 6,0 9,0 9,-3 1,-2 1,-9 0,-11 -2,-15 -26,-13 -23,4z"/>
   </g>
   <g>
    <path class="fil0 str0" d="M132 15c10,-2 13,13 4,15 -11,3 -14,-13 -4,-15zm13 10c2,-7 -3,-13 -9,-14 -7,-1 -13,3 -14,9 -3,16 20,20 23,5z"/>
    <path id="1" class="fil1" d="M132 15c10,-2 13,13 4,15 -11,3 -14,-13 -4,-15zm13 10c2,-7 -3,-13 -9,-14 -7,-1 -13,3 -14,9 -3,16 20,20 23,5z"/>
   </g>
   <g>
    <path class="fil0 str0" d="M197 11c-1,0 -5,10 -6,12l-2 4c-2,-2 -3,-6 -5,-9 0,-1 -1,-3 -2,-4 -1,-2 -1,-3 -4,-3 -1,2 -1,2 0,4 1,2 2,3 2,5 2,2 3,5 5,8 3,6 1,4 -2,13 -1,3 0,4 2,4 2,-2 7,-14 8,-17 1,-2 7,-15 7,-16 -1,-1 -2,-1 -3,-1z"/>
    <path id="1" class="fil1" d="M197 11c-1,0 -5,10 -6,12l-2 4c-2,-2 -3,-6 -5,-9 0,-1 -1,-3 -2,-4 -1,-2 -1,-3 -4,-3 -1,2 -1,2 0,4 1,2 2,3 2,5 2,2 3,5 5,8 3,6 1,4 -2,13 -1,3 0,4 2,4 2,-2 7,-14 8,-17 1,-2 7,-15 7,-16 -1,-1 -2,-1 -3,-1z"/>
   </g>
   <g>
    <path class="fil0 str0" d="M157 12c0,-10 7,-5 7,-9 0,-4 -7,-2 -10,2 -2,3 -2,5 -2,9 0,4 0,7 0,11 0,3 -1,9 2,9 2,1 3,-1 3,-3 0,-1 0,-3 0,-5 0,-3 0,-8 0,-11 1,0 3,1 4,0 2,0 2,-1 2,-2 -2,-2 -3,-1 -6,-1z"/>
    <path id="1" class="fil1" d="M157 12c0,-10 7,-5 7,-9 0,-4 -7,-2 -10,2 -2,3 -2,5 -2,9 0,4 0,7 0,11 0,3 -1,9 2,9 2,1 3,-1 3,-3 0,-1 0,-3 0,-5 0,-3 0,-8 0,-11 1,0 3,1 4,0 2,0 2,-1 2,-2 -2,-2 -3,-1 -6,-1z"/>
   </g>
   <g>
    <path class="fil0 str0" d="M167 28c0,3 2,5 5,6 5,1 5,-3 3,-4 -3,0 -3,0 -4,-2 0,-1 0,-4 0,-5 0,-3 0,-20 0,-21 -1,-1 -3,-2 -4,0 0,1 0,3 0,4 0,4 0,20 0,22z"/>
    <path id="1" class="fil1" d="M167 28c0,3 2,5 5,6 5,1 5,-3 3,-4 -3,0 -3,0 -4,-2 0,-1 0,-4 0,-5 0,-3 0,-20 0,-21 -1,-1 -3,-2 -4,0 0,1 0,3 0,4 0,4 0,20 0,22z"/>
   </g>
   <g>
    <path class="fil0 str0" d="M35 11c-1,3 0,16 0,20 0,1 0,3 1,3 2,1 3,0 3,-2 1,-8 -2,-14 3,-17 3,-1 7,0 8,0 1,-1 1,-3 0,-4 -1,0 -3,0 -4,0 -3,0 -5,1 -7,3 0,-3 -1,-3 -4,-3z"/>
    <path id="1" class="fil1" d="M35 11c-1,3 0,16 0,20 0,1 0,3 1,3 2,1 3,0 3,-2 1,-8 -2,-14 3,-17 3,-1 7,0 8,0 1,-1 1,-3 0,-4 -1,0 -3,0 -4,0 -3,0 -5,1 -7,3 0,-3 -1,-3 -4,-3z"/>
   </g>
  </g>
 </g>
</svg>
